<?xml version="1.0" standalone="no"?>
<!DOCTYPE svg PUBLIC "-//W3C//DTD SVG 20010904//EN"
 "http://www.w3.org/TR/2001/REC-SVG-20010904/DTD/svg10.dtd">
<svg version="1.0" xmlns="http://www.w3.org/2000/svg"
 width="980.000000pt" height="980.000000pt" viewBox="0 0 980.000000 980.000000"
 preserveAspectRatio="xMidYMid meet">

<g transform="translate(0.000000,980.000000) scale(0.100000,-0.100000)"
fill="#FFDB6E" stroke="none">
<path d="M4799 8966 c-85 -30 -143 -81 -183 -162 -60 -120 -37 -264 57 -358
29 -29 73 -61 99 -72 l48 -19 0 -777 0 -778 -415 0 -415 0 0 348 0 348 50 23
c69 31 142 113 164 185 24 74 18 174 -13 237 -32 68 -104 135 -170 160 -76 28
-185 24 -255 -10 -61 -30 -117 -87 -148 -149 -33 -68 -33 -206 0 -274 32 -64
89 -120 151 -148 l51 -24 0 -347 0 -347 -187 -4 c-154 -4 -200 -9 -253 -26
-163 -53 -299 -189 -351 -351 -18 -54 -23 -99 -27 -253 l-4 -188 -347 0 -347
0 -22 49 c-31 67 -104 137 -172 162 -74 28 -185 24 -252 -9 -109 -53 -170
-149 -176 -272 -5 -98 20 -168 84 -232 123 -125 312 -132 439 -16 32 29 63 69
76 98 l23 50 348 0 348 0 0 -415 0 -415 -777 0 -778 0 -18 45 c-27 64 -87 127
-153 160 -50 25 -71 29 -139 30 -69 0 -88 -4 -139 -30 -234 -119 -234 -458 2
-571 47 -23 71 -28 137 -28 68 -1 89 3 137 27 66 32 128 98 155 162 l18 45
778 0 777 0 0 -415 0 -415 -348 0 -347 0 -24 50 c-34 72 -118 146 -188 166
-155 45 -315 -22 -384 -162 -20 -41 -24 -64 -24 -139 0 -75 4 -98 24 -139 31
-63 84 -116 147 -147 69 -34 207 -35 274 -2 61 30 126 96 153 155 l22 48 346
0 346 0 5 -187 c4 -159 9 -198 27 -253 43 -125 117 -221 225 -292 102 -66 164
-80 379 -86 l187 -4 0 -347 0 -346 -48 -22 c-59 -27 -125 -92 -155 -153 -32
-66 -32 -205 1 -272 54 -109 149 -170 272 -176 96 -5 169 21 231 81 71 69 94
125 94 232 0 75 -4 98 -23 135 -33 62 -94 123 -153 150 l-49 23 0 349 0 348
415 0 415 0 0 -777 0 -778 -48 -19 c-26 -11 -70 -43 -99 -72 -43 -42 -55 -64
-74 -124 -37 -122 -10 -230 79 -319 127 -127 343 -120 459 14 143 164 85 421
-113 502 l-44 18 0 778 0 777 415 0 415 0 0 -348 0 -347 -49 -23 c-70 -32
-147 -118 -167 -189 -45 -155 23 -315 162 -384 70 -34 207 -35 276 -1 60 30
120 90 150 150 33 67 33 206 0 273 -30 61 -94 124 -154 151 l-48 22 0 346 0
347 188 5 c158 4 197 9 252 27 125 43 221 117 292 225 66 102 80 164 86 379
l4 187 347 0 347 0 22 -48 c27 -60 90 -124 151 -154 67 -34 206 -33 275 1 58
29 105 74 143 138 25 44 28 57 28 143 0 79 -4 103 -23 142 -70 141 -235 211
-387 163 -72 -23 -152 -94 -186 -165 l-24 -50 -347 0 -348 0 0 415 0 415 778
0 777 0 18 -45 c27 -64 86 -126 153 -160 52 -26 69 -30 139 -29 92 1 145 20
210 77 129 112 140 319 25 450 -22 25 -65 57 -97 73 -49 24 -70 28 -138 28
-68 0 -89 -4 -139 -29 -66 -33 -126 -96 -153 -160 l-18 -45 -777 0 -778 0 0
415 0 415 348 0 347 0 22 -47 c27 -60 92 -126 152 -155 67 -34 205 -33 275 1
116 58 180 169 174 301 -6 123 -67 218 -176 272 -67 33 -206 33 -272 1 -61
-30 -126 -96 -153 -155 l-22 -48 -346 0 -347 0 -4 188 c-6 214 -20 276 -86
378 -71 108 -167 182 -292 225 -55 18 -94 23 -252 27 l-188 5 0 346 0 346 48
22 c59 27 125 92 154 152 33 67 33 206 0 274 -59 118 -168 182 -302 175 -122
-6 -219 -68 -273 -178 -33 -67 -32 -206 3 -273 29 -59 101 -127 158 -152 l42
-19 0 -348 0 -348 -415 0 -415 0 0 778 0 777 45 18 c64 27 130 89 162 155 23
48 28 70 28 137 0 67 -5 89 -28 137 -54 110 -166 178 -290 178 -34 -1 -78 -7
-98 -14z m171 -174 c23 -11 43 -33 58 -62 52 -101 -14 -210 -126 -210 -87 0
-146 58 -146 145 0 114 110 179 214 127z m-1002 -856 c52 -27 75 -62 79 -118
7 -97 -58 -162 -155 -155 -45 3 -59 9 -90 40 -31 32 -36 43 -40 95 -4 55 -2
61 29 96 18 21 42 42 53 46 33 14 94 11 124 -4z m1995 -1 c46 -23 70 -61 74
-119 5 -60 -18 -105 -69 -136 -66 -40 -155 -17 -199 52 -26 42 -22 127 7 159
50 57 124 74 187 44z m447 -1341 c84 -41 145 -102 184 -184 l31 -65 0 -1445 0
-1445 -28 -60 c-37 -79 -114 -156 -191 -192 l-61 -28 -1445 0 -1445 0 -66 31
c-82 39 -142 100 -183 184 l-31 65 0 1445 0 1445 31 65 c50 105 145 184 251
209 22 5 657 8 1463 8 l1425 -2 65 -31z m-4324 -585 c78 -73 70 -184 -18 -240
-46 -28 -128 -22 -164 12 -42 39 -57 77 -51 133 4 43 10 55 47 89 40 38 43 39
101 35 45 -3 65 -10 85 -29z m5810 0 c41 -39 57 -77 52 -129 -6 -55 -30 -92
-76 -114 -70 -34 -152 -10 -192 56 -40 66 -17 155 52 199 46 28 128 22 164
-12z m-6675 -990 c82 -58 78 -190 -7 -246 -17 -11 -46 -17 -78 -17 -88 0 -146
60 -146 151 0 113 137 179 231 112z m7509 11 c48 -24 70 -56 77 -108 13 -94
-49 -166 -141 -166 -88 0 -146 58 -146 146 0 58 30 104 83 128 54 25 78 25
127 0z m-6662 -1000 c52 -32 74 -76 69 -138 -3 -45 -9 -59 -39 -89 -91 -90
-248 -29 -248 96 0 61 41 126 90 144 34 12 96 6 128 -13z m5800 6 c15 -8 38
-26 52 -41 21 -22 25 -36 25 -88 0 -72 -19 -106 -74 -133 -42 -20 -118 -15
-154 12 -56 42 -73 132 -37 192 39 64 125 91 188 58z m-3890 -1916 c18 -11 41
-34 52 -52 40 -66 17 -155 -52 -199 -26 -15 -45 -19 -86 -16 -45 3 -59 9 -89
40 -31 30 -37 44 -40 89 -3 41 1 60 16 86 44 69 133 92 199 52z m1980 6 c73
-38 102 -120 68 -194 -24 -51 -60 -75 -123 -80 -46 -4 -58 -1 -88 22 -44 34
-65 74 -65 123 0 102 118 176 208 129z m-988 -861 c134 -69 78 -275 -75 -275
-112 0 -180 133 -117 228 37 57 129 80 192 47z"/>
<path d="M4502 5760 c-7 -19 -131 -379 -274 -800 -143 -421 -274 -805 -290
-853 -17 -49 -29 -90 -27 -92 2 -2 55 -5 118 -7 l115 -3 83 250 c45 138 88
265 94 283 l11 32 316 -2 316 -3 92 -270 c51 -148 94 -274 96 -278 3 -8 235
-14 242 -6 3 2 -132 404 -298 893 l-303 889 -138 1 -138 1 -15 -35z m183 -310
c20 -74 79 -258 131 -409 52 -151 94 -279 94 -283 0 -4 -119 -8 -265 -8 -146
0 -265 2 -265 4 0 2 41 125 91 272 83 242 144 443 164 532 4 18 8 32 10 30 1
-2 19 -64 40 -138z"/>
<path d="M5664 5791 c-2 -2 -4 -404 -4 -892 l0 -888 116 -3 c72 -2 118 1 120
7 2 6 3 408 2 894 l-3 884 -113 1 c-63 0 -116 -1 -118 -3z"/>
</g>
</svg>
