<?xml version="1.0" standalone="no"?>
<!DOCTYPE svg PUBLIC "-//W3C//DTD SVG 20010904//EN"
 "http://www.w3.org/TR/2001/REC-SVG-20010904/DTD/svg10.dtd">
<svg version="1.0" xmlns="http://www.w3.org/2000/svg"
 width="256.000000pt" height="256.000000pt" viewBox="0 0 256.000000 256.000000"
 preserveAspectRatio="xMidYMid meet">

<g transform="translate(0.000000,256.000000) scale(0.100000,-0.100000)"
fill="#FFDB6E" stroke="none">
<path d="M1877 2050 c-14 -11 -29 -29 -32 -40 -6 -19 -18 -20 -223 -22 l-217
-3 -3 -117 -3 -118 -39 0 c-46 0 -70 -21 -70 -60 0 -46 -31 -56 -64 -22 -23
25 -26 35 -26 105 0 74 -1 78 -34 111 -93 92 -314 144 -576 133 -283 -11 -482
-88 -503 -197 -4 -18 -7 -249 -7 -514 0 -460 1 -482 20 -513 64 -105 272 -167
555 -166 237 1 417 47 501 127 35 34 44 49 44 76 0 45 44 94 71 79 12 -6 19
-21 19 -39 0 -39 24 -60 70 -60 l39 0 3 -117 3 -118 217 -3 c205 -2 217 -3
223 -22 10 -33 54 -60 97 -60 89 0 132 107 69 171 -23 22 -39 29 -69 29 -43 0
-87 -27 -97 -60 -6 -19 -16 -20 -201 -20 l-194 0 0 100 0 100 39 0 c47 0 71
20 71 60 0 43 28 54 63 24 37 -31 49 -30 90 6 l35 30 255 0 256 0 22 -31 c26
-37 76 -60 110 -52 34 8 76 50 82 81 7 35 -14 85 -44 106 -46 32 -122 12 -149
-38 l-13 -26 -234 0 c-128 0 -233 4 -233 9 0 5 7 14 15 21 21 18 19 60 -6 86
-31 33 -18 64 26 64 44 0 65 22 65 71 l0 39 70 0 c70 0 71 -1 109 -40 32 -34
44 -40 80 -40 31 0 48 6 66 24 69 69 25 176 -71 176 -37 0 -47 -5 -77 -40 -34
-40 -34 -40 -105 -40 l-72 0 0 39 c0 49 -21 71 -65 71 -44 0 -57 31 -26 64 25
26 27 68 6 86 -8 7 -15 16 -15 21 0 5 105 9 233 9 l234 0 13 -26 c27 -50 103
-70 149 -38 30 21 51 71 44 106 -6 31 -48 73 -82 81 -34 8 -84 -15 -110 -52
l-22 -31 -256 0 -255 0 -35 30 c-41 36 -53 37 -90 6 -35 -30 -63 -19 -63 24 0
40 -24 60 -71 60 l-39 0 0 100 0 100 194 0 c185 0 195 -1 201 -20 10 -33 54
-60 97 -60 56 0 98 43 98 100 0 84 -97 132 -163 80z m88 -32 c47 -21 41 -91
-9 -104 -67 -16 -105 74 -43 104 12 6 23 11 24 11 1 1 14 -4 28 -11z m-1020
-77 c129 -35 215 -87 215 -131 0 -52 -88 -107 -228 -143 -75 -19 -114 -22
-287 -22 -173 0 -212 3 -287 22 -140 36 -228 91 -228 143 0 20 44 66 80 85 41
21 127 46 203 61 114 21 429 13 532 -15z m-748 -263 c216 -114 680 -114 896 0
70 36 67 35 67 20 0 -7 -31 -45 -70 -83 -76 -76 -86 -102 -49 -141 31 -33 18
-64 -26 -64 -35 0 -65 -21 -65 -45 0 -27 -126 -46 -308 -46 -235 0 -420 46
-492 123 -18 19 -20 35 -20 146 0 68 3 122 8 120 4 -2 30 -15 59 -30z m1315
-10 c3 -39 6 -43 51 -61 l48 -20 30 29 29 28 60 -59 60 -59 -25 -26 c-29 -30
-31 -44 -10 -94 14 -33 19 -36 55 -36 l40 0 0 -90 0 -90 -40 0 c-36 0 -41 -3
-55 -36 -21 -50 -19 -64 10 -94 l25 -26 -60 -59 -60 -59 -29 28 -30 29 -48
-20 c-45 -18 -48 -22 -51 -61 l-3 -42 -84 0 -84 0 -3 42 c-3 39 -6 43 -51 61
l-48 20 -30 -29 -29 -28 -55 54 c-30 30 -55 59 -55 66 0 6 9 19 20 29 24 22
25 41 5 89 -14 33 -19 36 -55 36 l-40 0 0 90 0 90 40 0 c36 0 41 3 55 36 21
50 19 64 -10 94 l-25 26 60 59 60 59 29 -28 30 -29 48 20 c45 18 48 22 51 61
l3 42 84 0 84 0 3 -42z m898 -18 c34 -34 20 -80 -27 -95 -17 -4 -30 1 -48 20
-19 18 -24 31 -20 48 15 47 61 61 95 27z m-2132 -330 c165 -55 447 -65 645
-24 l27 6 0 -60 c0 -71 15 -92 65 -92 48 0 55 -29 19 -74 -22 -28 -41 -38 -93
-51 -231 -58 -563 -35 -731 50 -75 38 -80 50 -80 193 l0 123 43 -25 c23 -13
70 -34 105 -46z m1910 4 c32 -22 27 -73 -9 -93 -24 -13 -29 -13 -53 2 -34 22
-36 69 -4 91 28 20 38 20 66 0z m-1842 -346 c78 -20 114 -23 299 -23 185 0
221 3 299 23 l90 23 63 -63 c76 -75 81 -103 29 -152 -76 -73 -243 -111 -481
-111 -239 0 -404 38 -480 109 l-35 33 0 126 0 125 63 -34 c35 -18 104 -44 153
-56z m2072 4 c18 -23 15 -49 -8 -72 -34 -34 -80 -20 -95 27 -9 32 36 77 68 68
12 -4 28 -14 35 -23z m-438 -352 c32 -32 25 -66 -19 -90 -20 -10 -27 -9 -50 7
-33 25 -38 56 -12 82 26 26 55 27 81 1z"/>
<path d="M224 1529 c-8 -14 29 -49 52 -49 18 0 30 28 18 40 -17 16 -62 22 -70
9z"/>
<path d="M1345 1463 c-79 -41 -118 -102 -118 -183 0 -177 208 -264 336 -142
43 41 60 81 60 142 0 61 -17 101 -60 142 -58 56 -156 74 -218 41z m159 -51
c44 -26 68 -65 73 -119 12 -145 -159 -223 -263 -119 -79 79 -46 213 61 251 44
16 85 12 129 -13z"/>
<path d="M223 1204 c-8 -20 6 -32 45 -40 28 -6 32 -4 32 14 0 14 -10 24 -31
31 -40 14 -38 14 -46 -5z"/>
<path d="M224 878 c-9 -14 23 -38 53 -38 31 0 31 35 1 44 -34 9 -46 7 -54 -6z"/>
</g>
</svg>
