<?xml version="1.0" standalone="no"?>
<!DOCTYPE svg PUBLIC "-//W3C//DTD SVG 20010904//EN"
 "http://www.w3.org/TR/2001/REC-SVG-20010904/DTD/svg10.dtd">
<svg version="1.0" xmlns="http://www.w3.org/2000/svg"
 width="227.000000pt" height="222.000000pt" viewBox="0 0 227.000000 222.000000"
 preserveAspectRatio="xMidYMid meet">

<g transform="translate(0.000000,222.000000) scale(0.100000,-0.100000)"
fill="#FFDB6E" stroke="none">
<path d="M117 2113 c-4 -3 -7 -457 -7 -1008 0 -765 3 -1004 12 -1013 9 -9 245
-12 999 -12 543 0 994 3 1003 6 14 6 16 104 16 1008 0 766 -3 1005 -12 1014
-9 9 -247 12 -1008 12 -548 0 -1000 -3 -1003 -7z m743 -203 l0 -130 -335 0
-335 0 0 130 0 130 335 0 335 0 0 -130z m1200 0 l0 -130 -560 0 -560 0 0 130
0 130 560 0 560 0 0 -130z m0 -980 l0 -770 -935 0 -935 0 0 770 0 770 935 0
935 0 0 -770z"/>
<path d="M268 1925 c-8 -19 -8 -28 2 -40 17 -21 103 -20 124 1 37 36 10 64
-61 64 -47 0 -55 -3 -65 -25z"/>
<path d="M473 1943 c-19 -7 -16 -60 3 -67 9 -3 31 -6 49 -6 18 0 40 3 49 6 19
7 21 45 4 62 -12 12 -81 15 -105 5z"/>
<path d="M650 1935 c-7 -9 -10 -25 -6 -40 6 -25 9 -26 69 -23 60 3 62 4 65 32
2 16 -2 32 -10 37 -22 15 -104 10 -118 -6z"/>
<path d="M1058 1949 c-24 -14 -23 -56 1 -69 13 -6 172 -10 450 -10 377 0 431
2 445 16 18 18 20 32 6 54 -8 13 -71 15 -447 17 -289 2 -444 -1 -455 -8z"/>
<path d="M1887 1557 c-9 -7 -43 -70 -76 -142 -59 -130 -59 -130 -98 -136 -21
-3 -45 -9 -53 -13 -10 -4 -36 8 -70 31 -47 33 -55 44 -62 80 -4 23 -14 53 -23
67 -19 29 -72 56 -112 56 -92 0 -162 -111 -119 -189 13 -23 10 -29 -34 -91
-48 -64 -49 -66 -89 -62 -29 3 -50 -2 -75 -18 l-35 -21 -56 35 c-30 20 -55 43
-55 51 0 29 -31 76 -63 95 -106 65 -245 -45 -196 -154 10 -22 6 -33 -32 -95
-42 -68 -45 -71 -83 -71 -77 0 -144 -76 -130 -148 5 -27 1 -33 -58 -73 -69
-49 -84 -80 -47 -99 19 -11 30 -6 94 38 50 35 76 47 86 41 8 -5 34 -9 59 -9
104 0 166 91 126 185 -12 28 -10 34 28 95 l40 65 52 0 c41 0 58 5 77 23 l24
23 56 -33 c43 -25 57 -39 57 -56 0 -36 28 -81 63 -102 103 -63 229 31 197 147
-12 42 -12 43 34 108 46 64 48 65 92 65 25 0 58 7 73 16 27 16 29 15 83 -21
54 -35 56 -38 51 -73 -13 -110 133 -186 214 -111 55 52 68 134 29 178 -16 17
-13 27 42 148 61 134 64 151 23 172 -13 7 -23 6 -34 -2z m-449 -139 c7 -7 12
-24 12 -38 0 -32 -17 -50 -46 -50 -44 0 -72 58 -42 88 7 7 24 12 38 12 14 0
31 -5 38 -12z m-594 -184 c19 -18 20 -38 6 -65 -12 -22 -59 -26 -78 -7 -15 15
-15 61 0 76 17 17 54 15 72 -4z m932 -49 c15 -23 15 -27 0 -50 -28 -42 -96
-24 -96 25 0 49 68 67 96 25z m-594 -112 c22 -20 23 -41 1 -65 -20 -22 -51
-23 -75 -1 -22 20 -23 32 -2 61 18 26 50 28 76 5z m-582 -183 c11 -11 20 -27
20 -35 0 -19 -36 -55 -55 -55 -19 0 -55 36 -55 55 0 19 36 55 55 55 8 0 24 -9
35 -20z"/>
<path d="M1401 1096 c-8 -9 -10 -125 -9 -407 l3 -394 29 -3 c16 -2 32 2 37 10
5 7 9 187 9 400 0 373 -1 388 -19 398 -26 13 -36 13 -50 -4z"/>
<path d="M832 908 c-9 -9 -12 -85 -12 -304 0 -314 1 -320 52 -312 l23 3 0 310
0 310 -25 3 c-14 2 -31 -3 -38 -10z"/>
<path d="M1681 866 c-8 -9 -11 -95 -9 -292 l3 -279 35 0 35 0 3 279 c2 288 0
306 -38 306 -10 0 -23 -6 -29 -14z"/>
<path d="M1109 763 c-6 -17 -9 -111 -7 -240 2 -177 6 -215 18 -223 22 -14 36
-12 54 6 14 13 16 48 16 230 0 129 -4 223 -10 235 -16 29 -58 25 -71 -8z"/>
<path d="M546 495 c-9 -24 -7 -178 3 -193 5 -8 21 -12 37 -10 l29 3 0 105 0
105 -31 3 c-22 2 -33 -2 -38 -13z"/>
</g>
</svg>
